<svg width="128" height="40" viewBox="0 0 128 40" fill="none" xmlns="http://www.w3.org/2000/svg">
<g clip-path="url(#clip0_37_194)">
<path d="M0.000447875 38.0061C0.0756175 37.9707 0.167791 37.9518 0.223273 37.8966C0.706058 37.4198 1.20003 36.9523 1.65642 36.4513C2.74682 35.2545 3.31015 33.8379 3.31238 32.2141C3.3182 28.0239 3.31373 23.8343 3.31507 19.6442C3.31507 19.1521 3.25645 19.2068 3.75893 19.205C4.46006 19.2023 5.1612 19.2099 5.86188 19.2009C6.05383 19.1987 6.14154 19.2566 6.12006 19.4548C6.11156 19.5347 6.11872 19.6159 6.11872 19.6966C6.11872 23.8523 6.12812 28.0078 6.11603 32.1629C6.10887 34.6476 5.22877 36.7904 3.50568 38.5798C3.08285 39.0189 2.63855 39.437 2.2175 39.878C2.06762 40.035 1.97857 40.0238 1.83315 39.8735C1.32128 39.3446 0.79823 38.8265 0.272938 38.3107C0.199111 38.238 0.0917245 38.1989 0 38.1447C0 38.0985 0.000447875 38.0523 0.000447875 38.0061Z" fill="#64748B"/>
<path d="M72.0415 28.3505C72.0415 29.6289 72.0469 30.9073 72.0401 32.1853C72.0272 34.6884 71.1358 36.8321 69.3909 38.6206C68.973 39.049 68.5416 39.4639 68.1251 39.8932C67.9975 40.0246 67.9152 40.0183 67.7895 39.8901C67.2503 39.3392 66.7062 38.7928 66.1541 38.2546C66.0074 38.1114 66.0333 38.0244 66.1649 37.8926C66.6928 37.3633 67.2342 36.8447 67.7273 36.2835C68.6275 35.2581 69.1269 34.051 69.2177 32.6833C69.2405 32.3392 69.258 31.9943 69.2584 31.6498C69.262 29.2656 69.2669 26.8818 69.2531 24.4977C69.2508 24.1348 69.2043 23.7567 69.0946 23.4126C68.7062 22.1983 67.5621 21.4648 66.265 21.5573C65.1089 21.6398 64.0646 22.5899 63.8453 23.7763C63.8037 24.0007 63.8117 24.2353 63.8117 24.4654C63.8095 26.8608 63.8104 29.2562 63.8104 31.652C63.8104 31.7328 63.8033 31.8139 63.8113 31.8938C63.8324 32.0948 63.7379 32.1494 63.5496 32.1477C62.7795 32.1405 62.009 32.1414 61.2385 32.1468C61.0636 32.1481 60.9907 32.0903 60.9969 31.9081C61.0072 31.5977 60.9996 31.2864 60.9996 30.9755C60.9996 28.7412 60.9794 26.5068 61.0068 24.2729C61.0314 22.2732 61.8999 20.6992 63.5746 19.6118C66.7291 17.5632 71.0271 19.3073 71.8844 22.9757C71.9829 23.3973 72.0281 23.8396 72.0339 24.2734C72.0527 25.6321 72.0406 26.9913 72.0406 28.35L72.0415 28.3505Z" fill="#51A7BF"/>
<path d="M37.9486 28.4344C37.9486 29.6895 37.9574 30.9447 37.9463 32.1998C37.9257 34.5534 37.0939 36.5783 35.4559 38.2672C35.0393 38.6964 34.6066 39.11 34.1905 39.5398C34.0559 39.6784 33.9673 39.7268 33.8057 39.5591C33.2795 39.0118 32.7417 38.4753 32.1963 37.9473C32.0369 37.793 32.0607 37.7015 32.207 37.5611C32.6208 37.1619 33.0263 36.7537 33.4272 36.341C34.5619 35.1733 35.1467 33.781 35.1435 32.1428C35.1382 29.5173 35.1257 26.8918 35.1476 24.2668C35.1632 22.4092 35.9337 20.9064 37.4233 19.794C38.3642 19.0915 39.4398 18.7453 40.6104 18.7403C43.1737 18.7287 45.7371 18.7363 48.3009 18.7372C48.64 18.7372 48.6419 18.7394 48.6423 19.0745C48.6436 19.7882 48.6436 20.5023 48.6423 21.2164C48.6419 21.5475 48.64 21.5498 48.2978 21.5498C45.7456 21.5502 43.1938 21.5475 40.6416 21.5515C39.7558 21.5528 39.0416 21.9212 38.5002 22.6178C38.136 23.0865 37.9508 23.6253 37.9494 24.2205C37.9463 25.6254 37.949 27.0295 37.9486 28.4344Z" fill="#64748B"/>
<path d="M56.7745 13.7387C57.3723 13.7387 57.9705 13.7454 58.5683 13.7351C58.7714 13.7315 58.8546 13.784 58.851 14.0043C58.8394 14.7642 58.843 15.5245 58.8493 16.2843C58.8506 16.4607 58.7929 16.5338 58.6117 16.5279C58.3133 16.5185 58.0139 16.5315 57.715 16.5243C57.5351 16.5198 57.464 16.597 57.477 16.7719C57.4837 16.8635 57.4779 16.9563 57.4779 17.0483C57.4779 22.0468 57.4752 27.0448 57.4788 32.0432C57.4805 34.5283 56.6179 36.6505 54.8532 38.4018C54.4774 38.7745 54.1056 39.1513 53.7292 39.5237C53.5225 39.7278 53.5163 39.7291 53.3216 39.5362C52.7905 39.0096 52.2679 38.4744 51.7314 37.9532C51.5771 37.8033 51.5891 37.7087 51.7355 37.5616C52.2871 37.0072 52.8572 36.4671 53.3628 35.8723C54.1933 34.8943 54.6142 33.7398 54.6634 32.4537C54.6711 32.2581 54.6666 32.0621 54.6666 31.8665C54.6666 25.9812 54.6666 20.0963 54.6671 14.2111C54.6671 13.6692 54.6201 13.7432 55.1534 13.7396C55.6939 13.7364 56.234 13.7387 56.7745 13.7387Z" fill="#51A7BF"/>
<path d="M80.5291 13.7387C81.1157 13.7387 81.7023 13.7373 82.2885 13.7392C82.6016 13.7405 82.6043 13.7432 82.6052 14.0679C82.6071 14.7704 82.6066 15.4733 82.6052 16.1758C82.6048 16.5212 82.603 16.5221 82.2723 16.5248C82.0195 16.5266 81.7658 16.5347 81.5135 16.5226C81.313 16.5132 81.2432 16.5993 81.2611 16.7877C81.2678 16.8563 81.262 16.9258 81.262 16.9949C81.262 22.04 81.2728 27.0856 81.258 32.1307C81.2508 34.518 80.4088 36.5823 78.7375 38.2958C78.3277 38.7162 77.9031 39.1217 77.4964 39.5447C77.351 39.6963 77.2547 39.6986 77.1053 39.5461C76.5653 38.9957 76.0167 38.4538 75.4623 37.9182C75.3196 37.7805 75.3639 37.6966 75.4807 37.5822C75.8829 37.187 76.278 36.7847 76.678 36.3868C77.8731 35.198 78.4561 33.759 78.4552 32.0733C78.4525 26.1525 78.4544 20.2318 78.4544 14.3111C78.4544 14.242 78.4544 14.1729 78.4544 14.1038C78.4561 13.7409 78.4561 13.7396 78.8042 13.7387C79.3792 13.7373 79.9541 13.7387 80.5291 13.7387Z" fill="#51A7BF"/>
<path d="M16.5799 24.9014C16.5799 27.3085 16.5755 29.7151 16.5813 32.1222C16.5867 34.4552 15.7817 36.4657 14.1973 38.1644C13.7423 38.6525 13.2541 39.1091 12.7883 39.5868C12.6769 39.7012 12.6058 39.721 12.4836 39.5962C11.9284 39.0288 11.3664 38.4681 10.8004 37.9114C10.6805 37.7934 10.6863 37.7158 10.8027 37.6019C11.2223 37.1915 11.6348 36.7743 12.0478 36.3576C13.2143 35.1792 13.7933 33.7577 13.7933 32.0992C13.7938 26.1682 13.7933 20.2372 13.7933 14.3066C13.7933 14.2258 13.7929 14.1455 13.7933 14.0647C13.796 13.7418 13.7964 13.7387 14.1079 13.7387C15.2922 13.7373 16.4761 13.7369 17.6605 13.7387C17.9406 13.7391 17.9446 13.7441 17.9455 14.0244C17.9478 14.7731 17.9415 15.5217 17.9495 16.27C17.9514 16.4583 17.8994 16.54 17.699 16.5311C17.4006 16.518 17.1012 16.5328 16.8024 16.5261C16.6417 16.5225 16.5666 16.5827 16.5781 16.7472C16.5839 16.8276 16.5786 16.9083 16.5786 16.989C16.5786 19.6262 16.5786 22.2633 16.5786 24.901L16.5799 24.9014Z" fill="#64748B"/>
<path d="M28.2025 27.8853C28.2025 29.2674 28.203 30.6499 28.2025 32.032C28.2016 34.6624 27.2763 36.9075 25.4092 38.761C25.0253 39.1418 24.64 39.5218 24.2633 39.9103C24.1487 40.0283 24.0708 40.0309 23.9546 39.9121C23.3979 39.3455 22.8377 38.7826 22.2709 38.2273C22.1433 38.1025 22.1724 38.0294 22.2829 37.9208C22.7017 37.51 23.116 37.0937 23.5277 36.6756C24.7743 35.4084 25.3993 33.8868 25.397 32.1047C25.3931 29.1907 25.398 26.2763 25.3944 23.3624C25.3935 22.4792 24.8458 21.7928 23.9895 21.5933C23.835 21.5573 23.6704 21.5528 23.5107 21.5524C22.4185 21.5488 21.3258 21.5511 20.2337 21.5502C19.8815 21.5502 19.8806 21.5483 19.8802 21.1899C19.8793 20.4642 19.8864 19.7383 19.8761 19.013C19.873 18.8063 19.9298 18.7313 20.1468 18.7331C21.3429 18.743 22.5392 18.7129 23.7344 18.7448C26.2186 18.8107 28.1792 20.8293 28.2002 23.3252C28.2128 24.8453 28.2025 26.366 28.203 27.8863L28.2025 27.8853Z" fill="#64748B"/>
<path d="M75.9965 1.06826C77.7469 1.08755 79.3913 1.50293 80.9143 2.3606C81.8566 2.89127 82.8356 3.28287 83.9198 3.39905C85.4716 3.56457 86.9145 3.24519 88.2527 2.4548C89.1994 1.89587 89.9641 1.14048 90.5625 0.217314C90.7362 -0.0509329 90.7379 -0.0500354 91.0063 0.106966C91.6214 0.467619 92.2365 0.827823 92.8507 1.18893C93.1466 1.36298 93.1499 1.36612 92.9646 1.65634C91.7187 3.60898 90.0048 4.97041 87.8171 5.72715C86.4598 6.19636 85.0618 6.34304 83.638 6.19636C82.2249 6.05057 80.9062 5.59572 79.6785 4.87845C78.4874 4.18271 77.1961 3.84627 75.8242 3.88082C74.0511 3.92523 72.4792 4.53125 71.1293 5.69485C70.9069 5.88684 70.9042 5.89087 70.7024 5.67422C70.2013 5.13503 69.7011 4.5945 69.2053 4.04993C69.0048 3.83012 69.0075 3.82161 69.2129 3.64307C70.8022 2.26281 72.6349 1.42263 74.7272 1.16874C75.1481 1.1176 75.5737 1.10146 75.9969 1.06916L75.9965 1.06826Z" fill="#51A7BF"/>
<path d="M48.6424 29.3319C48.6424 30.2071 48.6438 31.0823 48.642 31.9574C48.6415 32.2598 48.638 32.2629 48.3405 32.2638C47.616 32.2657 46.8921 32.2652 46.1677 32.2638C45.8406 32.2634 45.8392 32.2612 45.8388 31.9135C45.8379 31.1074 45.8392 30.3013 45.8379 29.4953C45.8375 29.1619 45.8353 29.1602 45.4956 29.1597C44.6795 29.1588 43.8634 29.1606 43.0473 29.1588C42.7542 29.1583 42.7488 29.1553 42.7475 28.8861C42.7443 28.1262 42.751 27.3658 42.743 26.606C42.7407 26.4086 42.8132 26.3498 43.0047 26.3503C44.798 26.3557 46.5914 26.357 48.3847 26.3489C48.6111 26.348 48.6483 26.4396 48.646 26.6373C48.6375 27.5354 48.6424 28.4334 48.6424 29.3319Z" fill="#64748B"/>
<path d="M3.31513 12.0225C3.31513 11.5043 3.3196 10.9863 3.31288 10.4682C3.31065 10.3063 3.36434 10.2421 3.53079 10.2434C4.31246 10.2488 5.09414 10.2506 5.87536 10.2425C6.08298 10.2403 6.12369 10.3345 6.1219 10.5157C6.11563 11.2182 6.11967 11.9202 6.11922 12.6227C6.11922 12.9452 6.1143 13.2677 6.121 13.5898C6.12459 13.7522 6.06418 13.8123 5.89953 13.8109C5.11785 13.8051 4.33618 13.8024 3.55495 13.8123C3.34376 13.815 3.30931 13.7226 3.31244 13.5423C3.3205 13.0358 3.31469 12.5289 3.31513 12.0225Z" fill="#64748B"/>
<path d="M61.7403 0.493566C61.1483 0.703947 60.5573 0.918367 59.9635 1.12426C59.9219 1.13862 59.8754 1.13907 59.8279 1.13772C59.7774 1.13593 59.7411 1.08793 59.7545 1.03903C59.7747 0.963225 59.7952 0.887417 59.8369 0.825959C59.8745 0.770784 59.9769 0.759123 60.0521 0.731311C60.6848 0.498949 61.3188 0.26883 61.9505 0.0337774C61.9564 0.0315345 61.9622 0.0292924 61.9676 0.0261524C62.0593 -0.0196022 62.1662 0.0494772 62.1524 0.151303C62.1251 0.35675 62.0548 0.381871 61.7403 0.493566Z" fill="#64748B"/>
<path d="M50.5677 4.9269C47.544 4.9269 44.5202 4.9278 41.4968 4.92511C41.3021 4.92511 41.0968 4.93498 40.9165 4.87756C40.7308 4.8179 40.682 4.85648 40.6382 5.03277C40.4413 5.82943 39.8722 6.25648 39.1397 6.51665C39.0055 6.5642 38.8986 6.55613 38.8036 6.43636C38.6489 6.24168 38.6712 6.16228 38.9039 6.07167C39.107 5.99317 39.316 5.92049 39.503 5.81194C40.1988 5.40778 40.4145 4.7865 40.0914 4.05308C39.9836 3.80771 40.0279 3.64668 40.1925 3.46993C40.354 3.29678 40.3715 3.29275 40.461 3.50268C40.5241 3.65071 40.5795 3.80233 40.6368 3.9526C40.7527 4.25808 40.9621 4.39355 41.2986 4.38906C42.2986 4.37605 43.2991 4.38458 44.2996 4.38458C49.2894 4.38458 54.2792 4.38458 59.269 4.38368C59.4874 4.38368 59.7062 4.37919 59.9232 4.35901C60.0825 4.34421 60.2431 4.3146 60.3957 4.26705C61.0503 4.06295 61.1474 3.76599 60.6973 3.25911C60.4007 2.92492 60.0633 2.62572 59.7357 2.31934C59.4851 2.08474 59.5549 1.64379 59.8784 1.52178C60.5559 1.26654 61.2351 1.01668 61.9156 0.769969C62.1469 0.686086 62.1653 0.715692 62.1403 0.963751C62.1193 1.17458 62.023 1.2791 61.8176 1.3428C61.3129 1.49935 60.8181 1.68641 60.317 1.85373C60.1487 1.90979 60.1518 1.96677 60.2713 2.08339C60.5425 2.3485 60.8207 2.60913 61.0633 2.8998C61.7742 3.75253 61.376 4.54696 60.4548 4.80041C60.1388 4.88698 59.7975 4.91076 59.4673 4.91165C56.5012 4.91973 53.5338 4.9269 50.5677 4.9269Z" fill="#64748B"/>
<path d="M23.1161 4.38409C25.002 4.38409 26.8879 4.38409 28.7739 4.38409C28.8661 4.38409 28.9578 4.38543 29.05 4.38364C29.4951 4.37287 29.8308 4.31994 29.845 3.67355C29.8469 3.59326 29.8687 3.51341 29.8687 3.43312C29.8683 3.29585 29.91 3.22228 30.067 3.22318C30.2164 3.22407 30.2714 3.28598 30.2782 3.42683C30.2866 3.59908 30.296 3.77223 30.3238 3.94224C30.361 4.16698 30.4894 4.3343 30.7243 4.35672C31.2285 4.40517 31.7346 4.42222 32.2299 4.28137C32.4241 4.22619 32.5878 4.12437 32.6648 3.92161C32.7154 3.78838 32.6916 3.73949 32.5306 3.74802C32.293 3.76102 32.046 3.77313 31.8165 3.72379C31.4603 3.64708 31.3319 3.44432 31.322 3.07695C31.3126 2.73154 31.399 2.41351 31.5946 2.13046C31.9256 1.65137 32.5275 1.64868 32.8147 2.15019C33.174 2.7773 33.2304 3.4681 33.0393 4.15577C32.9064 4.63395 32.4885 4.83177 32.0357 4.87977C31.5923 4.92687 31.1399 4.91924 30.6938 4.89502C30.5243 4.8856 30.3431 4.78781 30.2008 4.68418C30.0795 4.59582 30.0272 4.62452 29.9122 4.68732C29.7265 4.78915 29.5167 4.85644 29.3094 4.90668C29.1672 4.94122 29.0124 4.92597 28.8629 4.92597C25.0682 4.92687 21.273 4.92687 17.4783 4.92597C17.2944 4.92597 17.1105 4.91655 16.9271 4.90488C16.3902 4.87034 16.0787 4.58953 16.0125 4.05394C15.9758 3.75743 15.9646 3.45689 15.961 3.15769C15.9512 2.38614 15.9516 1.61415 15.9485 0.8426C15.9477 0.659581 16.1664 0.438883 16.3387 0.464901C16.3763 0.470731 16.4268 0.559549 16.4282 0.611583C16.4403 1.02607 16.4469 1.44055 16.4461 1.85503C16.4447 2.41933 16.434 2.98364 16.4295 3.54795C16.4287 3.63991 16.4349 3.73232 16.4469 3.82337C16.5038 4.2558 16.6044 4.36167 17.0456 4.3648C18.8739 4.37692 20.7021 4.37871 22.5303 4.38409C22.7258 4.38454 22.9206 4.38409 23.1161 4.38409ZM32.1815 3.23215C32.7785 3.19806 32.7628 3.12674 32.5807 2.65259C32.4868 2.40812 32.2671 2.30361 32.0599 2.36192C31.8509 2.42023 31.6858 2.69431 31.7131 2.93833C31.736 3.14468 31.8706 3.22946 32.1815 3.23215Z" fill="#64748B"/>
<path d="M8.60549 6.37491C8.51689 6.36817 8.36745 6.36369 8.21982 6.3435C7.4198 6.2345 6.93388 5.67917 6.98713 4.87352C7.0104 4.52453 7.1321 4.18093 7.21801 3.83732C7.24843 3.71531 7.3151 3.64353 7.47081 3.68974C7.63636 3.73863 7.60101 3.83194 7.58088 3.95216C7.52852 4.26795 7.46454 4.58509 7.4556 4.90358C7.4462 5.23597 7.61757 5.49615 7.91198 5.66212C8.43768 5.95907 9.48337 5.85277 9.93129 5.44277C10.0338 5.34902 10.0919 5.20637 10.1702 5.08615C10.0458 5.04219 9.92365 4.98926 9.79656 4.95696C9.597 4.90627 9.39078 4.87981 9.19255 4.82418C8.98983 4.76722 8.88651 4.61829 8.91735 4.40612C8.98226 3.95619 9.11109 3.52736 9.43018 3.18644C9.72857 2.86751 10.095 2.70692 10.5407 2.74684C10.7116 2.76209 10.7837 2.8222 10.7568 3.00791C10.7089 3.34165 10.6964 3.36362 10.3657 3.37887C9.88159 3.40176 9.5827 3.61348 9.4212 4.04815C9.33842 4.27064 9.35405 4.30384 9.5778 4.35407C9.7791 4.39893 9.98499 4.42675 10.1836 4.48192C10.4977 4.56894 10.5926 4.71338 10.559 5.04174C10.5075 5.5437 10.2122 5.88102 9.79432 6.12236C9.44622 6.32332 9.06056 6.3758 8.60458 6.37535L8.60549 6.37491Z" fill="#64748B"/>
<path d="M15.2774 4.34603C15.297 5.39794 14.8282 6.10624 13.9131 6.46017C13.8174 6.49695 13.7172 6.53104 13.6165 6.5436C13.4907 6.55975 13.2791 6.37493 13.2997 6.2453C13.3105 6.17801 13.4241 6.11387 13.5042 6.07394C13.7288 5.9609 13.9847 5.89407 14.1825 5.74738C14.3874 5.59532 14.5624 5.38628 14.7073 5.17321C14.8295 4.99332 14.779 4.93905 14.5629 4.93097C14.3798 4.92425 14.1955 4.92694 14.0152 4.90092C13.6948 4.85517 13.4971 4.65824 13.4415 4.34245C13.3593 3.87548 13.4778 3.44709 13.7731 3.08375C14.0519 2.74059 14.5454 2.75001 14.8653 3.08599C15.0873 3.3188 15.1902 3.61127 15.2403 3.92213C15.2658 4.08048 15.2684 4.24287 15.2774 4.34603ZM14.5597 4.41287C14.5597 4.41287 14.6407 4.4205 14.7163 4.39987C14.7584 4.3882 14.8098 4.32944 14.8165 4.29355C14.851 4.10246 14.7131 3.77097 14.5861 3.55251C14.4497 3.31701 14.1356 3.34931 13.9834 3.57942C13.8577 3.76962 13.8022 3.99122 13.8979 4.2007C13.9834 4.3882 14.1878 4.40301 14.3744 4.41287C14.4089 4.41467 14.4433 4.41287 14.5597 4.41287Z" fill="#64748B"/>
<path d="M38.5962 4.40203C38.5943 5.42613 38.1411 6.09854 37.2462 6.45471C37.1611 6.48835 37.0739 6.52109 36.9844 6.53814C36.8247 6.56819 36.6439 6.43228 36.614 6.25823C36.5826 6.07746 36.7491 6.11289 36.8395 6.06669C37.1138 5.92628 37.3929 5.79441 37.6601 5.64144C37.7558 5.58672 37.8395 5.49207 37.8976 5.39652C37.9729 5.27316 38.0167 5.13141 38.0739 4.99729C37.9468 4.978 37.8198 4.95557 37.6918 4.93987C37.601 4.92866 37.5084 4.93045 37.418 4.91744C36.9741 4.85374 36.7411 4.60389 36.7321 4.15666C36.7249 3.80453 36.8184 3.47169 37.0162 3.17833C37.2985 2.76025 37.8127 2.71629 38.171 3.07649C38.4082 3.31469 38.5134 3.61748 38.5603 3.94134C38.5849 4.11136 38.5876 4.2845 38.5962 4.40203ZM37.8816 4.41324C37.8843 4.41324 37.968 4.42043 38.0431 4.39889C38.0838 4.38723 38.1456 4.31635 38.1384 4.28854C38.0709 4.03779 38.031 3.76595 37.9017 3.54884C37.7626 3.31469 37.4498 3.35192 37.299 3.58473C37.1742 3.77672 37.1227 4.00056 37.2202 4.2078C37.3075 4.39261 37.5146 4.40383 37.7012 4.41324C37.7357 4.41504 37.7697 4.41324 37.8816 4.41324Z" fill="#64748B"/>
<path d="M3.30701 3.80503C3.30701 2.99984 3.30433 2.1951 3.31103 1.38991C3.31193 1.30064 3.3513 1.14813 3.40098 1.13557C3.52715 1.10372 3.66988 1.13108 3.80502 1.14364C3.82291 1.14543 3.8417 1.19703 3.84976 1.22843C3.85826 1.26117 3.85513 1.29706 3.85513 1.33115C3.85513 2.98728 3.85154 4.64342 3.86005 6.2991C3.86138 6.53281 3.73432 6.52025 3.57637 6.52428C3.405 6.52922 3.29986 6.50813 3.30254 6.28833C3.31372 5.46027 3.30701 4.63265 3.30701 3.80503Z" fill="#64748B"/>
<path d="M65.1997 3.79017C65.1997 4.60613 65.2024 5.42163 65.1961 6.23758C65.1953 6.32865 65.1634 6.48475 65.1156 6.49731C64.9894 6.53095 64.8467 6.50762 64.7115 6.49372C64.6896 6.49147 64.6677 6.4224 64.6592 6.38112C64.6498 6.33717 64.6556 6.28962 64.6556 6.24387C64.6556 4.63527 64.6548 3.02669 64.6561 1.41766C64.6561 1.10993 64.6655 1.11801 64.9585 1.10949C65.1666 1.10321 65.2042 1.19517 65.2024 1.37728C65.1953 2.18158 65.1997 2.98588 65.1997 3.79017Z" fill="#64748B"/>
<path d="M35.1616 4.90311C34.5088 4.89638 34.1142 4.42583 34.2376 3.7875C34.32 3.36091 34.5361 2.99353 34.792 2.65127C34.8354 2.59295 34.9504 2.54944 35.0242 2.55931C35.5075 2.6239 36.0712 3.18866 36.1674 3.68523C36.308 4.41058 35.895 4.91029 35.1616 4.90311ZM35.2175 4.36437C35.269 4.36168 35.3146 4.36123 35.3598 4.35629C35.5375 4.33656 35.6963 4.28542 35.7714 4.10061C35.8471 3.9149 35.7611 3.70317 35.656 3.56277C35.622 3.51746 35.5687 3.46902 35.5366 3.4412C35.4425 3.35956 35.243 3.19493 35.1222 3.16533C35.0841 3.15636 35.018 3.16668 34.9724 3.20794C34.8153 3.34969 34.7115 3.61435 34.6466 3.83684C34.5558 4.14905 34.6931 4.3065 35.018 4.35136C35.0856 4.36078 35.155 4.36078 35.2175 4.36437Z" fill="#64748B"/>
<path d="M12.9332 4.47161C12.934 5.51096 12.2226 6.27488 11.3286 6.52339C11.1457 6.57453 10.9573 6.45072 10.9219 6.26187C10.9139 6.22015 10.9448 6.15421 10.9792 6.1255C11.0204 6.09141 11.0857 6.08828 11.1385 6.06629C11.3081 5.99676 11.4831 5.93755 11.6446 5.85232C12.2182 5.55088 12.7292 4.92557 12.2956 3.99837C12.1314 3.64713 12.1533 3.60631 12.3976 3.34255C12.5072 3.22413 12.5667 3.26764 12.6312 3.37395C12.8469 3.72743 12.9265 4.11723 12.9332 4.47161Z" fill="#64748B"/>
<path d="M32.0358 0.476201C32.0935 0.421474 32.1838 0.421474 32.2416 0.476201C32.3723 0.600456 32.5092 0.712599 32.4962 0.802763C32.4796 0.916251 32.3432 1.01269 32.2201 1.11093C32.1637 1.15624 32.0832 1.15399 32.0286 1.10644C31.9132 1.00597 31.7834 0.905934 31.783 0.805005C31.7825 0.700936 31.9105 0.595522 32.0358 0.476201Z" fill="#64748B"/>
<path d="M29.8043 1.63615C29.862 1.58142 29.9524 1.58142 30.0102 1.63615C30.1408 1.7604 30.2777 1.87255 30.2647 1.96271C30.2481 2.0762 30.1117 2.17264 29.9886 2.27088C29.9323 2.31618 29.8517 2.31394 29.7971 2.26639C29.6817 2.16592 29.5519 2.06588 29.5515 1.96495C29.551 1.86088 29.679 1.75547 29.8043 1.63615Z" fill="#64748B"/>
<path d="M84.8607 37.9744C87.0475 34.4994 89.2343 31.0244 91.4203 27.5498C98.0056 21.1514 105.099 21.0568 113.085 25.2243C118.741 28.1764 126.541 25.6733 127.821 21.1964C129.269 26.5844 121.656 36.6018 114.672 38.5036C114.095 38.6626 113.499 38.7432 112.899 38.7432C109.381 38.7432 105.903 38.0233 102.688 36.6433C102.355 36.5007 102.02 36.3627 101.683 36.2315C95.8562 33.9629 90.4603 34.5607 85.6544 38.6198C85.2023 39.0016 84.5482 38.4702 84.8607 37.9744Z" fill="url(#paint0_linear_37_194)"/>
<path d="M127.821 21.1968C126.541 25.6737 118.742 28.1763 113.085 25.2246C105.099 21.0571 98.0065 21.1514 91.4211 27.5503C96.2103 19.6643 100.623 11.5287 105.933 3.98903C108.998 -0.361872 116.244 0.741174 118.978 5.39119C122.038 10.5974 124.882 15.9228 127.821 21.1968Z" fill="url(#paint1_linear_37_194)"/>
</g>
<defs>
<linearGradient id="paint0_linear_37_194" x1="88.3474" y1="25.2383" x2="124.81" y2="35.2926" gradientUnits="userSpaceOnUse">
<stop offset="0.11" stop-color="#88C7D8"/>
<stop offset="0.93" stop-color="#30738E"/>
</linearGradient>
<linearGradient id="paint1_linear_37_194" x1="103.778" y1="3.1821" x2="110.366" y2="28.4833" gradientUnits="userSpaceOnUse">
<stop stop-color="#94A3B8"/>
<stop offset="1" stop-color="#070C19"/>
</linearGradient>
<clipPath id="clip0_37_194">
<rect width="128" height="40" fill="white"/>
</clipPath>
</defs>
</svg>
