<svg width="918" height="256" viewBox="0 0 918 256" fill="none" xmlns="http://www.w3.org/2000/svg">
<path d="M558.345 34.9404C535.103 34.9404 514.513 46.31 501.833 63.7759C497.291 70.0399 493.755 77.0812 491.499 84.6558C489.579 91.0112 488.558 97.7476 488.558 104.728V151.258H476.929C457.665 151.258 442.043 135.636 442.043 116.372C442.043 116.875 442.043 117.378 442.028 117.865V34.9404H418.786V114.863C418.77 115.366 418.77 115.869 418.77 116.372C418.77 135.636 403.149 151.258 383.884 151.258H348.968V34.9404H325.726V116.372C325.726 135.636 310.089 151.258 290.824 151.258H255.908V34.9404H232.665V116.372C232.665 135.636 217.044 151.258 197.764 151.258H58.174C38.8944 151.258 23.2727 135.636 23.2727 116.372V34.9404H0V116.372C0 148.484 26.0465 174.531 58.174 174.531H197.764C210.856 174.531 222.942 170.202 232.665 162.902V174.531H290.824C303.916 174.531 316.002 170.202 325.726 162.902V174.531H383.884C402.905 174.531 419.792 165.401 430.414 151.273C441.022 165.401 457.909 174.531 476.929 174.531H558.345C596.889 174.531 628.148 143.272 628.148 104.728C628.148 66.184 596.889 34.9404 558.345 34.9404ZM558.345 151.258H511.815V104.728C511.815 94.669 515.016 85.3569 520.426 77.7517C528.87 65.9097 542.708 58.1978 558.345 58.1978C584.041 58.1978 604.875 79.0319 604.875 104.728C604.875 130.424 584.041 151.258 558.345 151.258Z" fill="#034694"/>
<path d="M139.59 34.9404H69.8027V58.1978H139.59V34.9404Z" fill="#034694"/>
<path d="M325.497 197.787H255.923V221.06H325.497V197.787Z" fill="#034694"/>
<path d="M401.274 197.787H366.479V221.06H401.274V197.787Z" fill="#034694"/>
<rect x="661.148" width="256" height="256" rx="128" fill="#034694"/>
<path d="M725 128C725 92.6538 753.654 64 789 64V64C824.346 64 853 92.6538 853 128V128C853 163.346 824.346 192 789 192H725V128Z" fill="white"/>
</svg>
